<svg width="22" height="25" viewBox="0 0 22 25" fill="none" xmlns="http://www.w3.org/2000/svg">
<path d="M0 4.6875C0 3.82471 0.703705 3.125 1.57143 3.125H20.4286C21.2978 3.125 22 3.82471 22 4.6875C22 5.55176 21.2978 6.25 20.4286 6.25H1.57143C0.703705 6.25 0 5.55176 0 4.6875ZM0 12.5C0 11.6357 0.703705 10.9375 1.57143 10.9375H20.4286C21.2978 10.9375 22 11.6357 22 12.5C22 13.3643 21.2978 14.0625 20.4286 14.0625H1.57143C0.703705 14.0625 0 13.3643 0 12.5ZM20.4286 21.875H1.57143C0.703705 21.875 0 21.1768 0 20.3125C0 19.4482 0.703705 18.75 1.57143 18.75H20.4286C21.2978 18.75 22 19.4482 22 20.3125C22 21.1768 21.2978 21.875 20.4286 21.875Z" fill="#FF2E63"/>
</svg>
